<svg xmlns="http://www.w3.org/2000/svg" width="22" height="18">
    <g fill="none" fill-rule="evenodd">
        <g fill="#FFF">
            <path fill-rule="nonzero" d="M15 9a4 4 0 1 0-8 0 4 4 0 0 0 8 0zM9 9a2 2 0 1 1 4 0 2 2 0 0 1-4 0z"/>
            <path d="M10.02 7.256a2 2 0 0 1 2.81.937 1.5 1.5 0 0 1-2.81-.937z"/>
        </g>
        <path stroke="#FFF" stroke-width="2" d="M11 17c-3.132 0-5.706-1.306-7.635-3.468C1.99 11.995 1 9.982 1 9c0-.984.984-2.995 2.353-4.531C5.278 2.306 7.855 1 11 1c3.146 0 5.723 1.303 7.647 3.46C20.017 5.997 21 8.006 21 9c0 .992-.99 3.003-2.365 4.54C16.707 15.698 14.133 17 11 17z"/>
    </g>
</svg>