<svg xmlns="http://www.w3.org/2000/svg" viewBox="0 0 18 18" id="icon_verified-profile-small">
    <g fill="none" fill-rule="evenodd">
    <path d="M6.722 2l-1.06.44L7.234.864a2.495 2.495 0 0 1 3.53 0l1.574 1.574L11.279 2h2.225A2.495 2.495 0 0 1 16 4.496v2.226l-.44-1.06 1.575 1.573a2.495 2.495 0 0 1 0 3.53l-1.574 1.574.439-1.06v2.225A2.495 2.495 0 0 1 13.504 16h-2.226l1.06-.44-1.573 1.575a2.495 2.495 0 0 1-3.53 0L5.661 15.56l1.06.439H4.497A2.495 2.495 0 0 1 2 13.504v-2.226l.44 1.06-1.575-1.573a2.495 2.495 0 0 1 0-3.53L2.44 5.661 2 6.721V4.497A2.495 2.495 0 0 1 4.496 2h2.226z" fill="#FFF" fill-rule="nonzero"></path>
    <path d="M4.496 3.5a.995.995 0 0 0-.996.996v2.226L1.926 8.296a.995.995 0 0 0 0 1.408L3.5 11.278v2.226c0 .551.446.996.996.996h2.226l1.574 1.574a.995.995 0 0 0 1.408 0l1.574-1.574h2.226a.995.995 0 0 0 .996-.996v-2.226l1.574-1.574a.995.995 0 0 0 0-1.408L14.5 6.722V4.496a.995.995 0 0 0-.996-.996h-2.226L9.704 1.926a.995.995 0 0 0-1.408 0L6.722 3.5H4.496z" fill="#38F"></path><path d="M8.689 9.693L7.305 8.55a.804.804 0 1 0-1.023 1.239l1.942 1.604a.8.8 0 0 0 .574.182.8.8 0 0 0 .527-.237l2.912-2.962a.804.804 0 1 0-1.142-1.13L8.689 9.692z" fill="#FFF" fill-rule="nonzero"></path>
    </g>
</svg>